<svg width="442" height="442" viewBox="0 0 442 442" fill="none" xmlns="http://www.w3.org/2000/svg">
<circle cx="221" cy="221" r="221" fill="white"/>
<path d="M260.849 98.7208C266.943 83.906 280.767 75.3078 294.923 76.7247C312.703 78.5046 327.643 96.0399 325.725 117.964C324.431 132.75 315.742 144.225 304.847 149.277L237.19 170.238L260.849 98.7208Z" fill="#F4B400" stroke="#F4B400" stroke-width="32"/>
<path d="M256.686 235.767L343.535 267.303C356.473 242.742 361.296 215.37 356.8 182.707L221.751 223.354L256.686 235.767Z" fill="#500C20"/>
<path d="M147.434 85.5077C175.439 69.8158 195.614 65.1903 222.502 65.8244C163.541 110.076 140.598 186.009 188.953 256.54L130.147 310.351C94.607 281.819 64.3581 220.314 90.2144 153.728C100.561 125.398 123.512 99.8079 147.434 85.5077Z" fill="#256533"/>
<path d="M153.924 330.123L221.751 385.937L291.503 326.064C312.854 307.652 329.295 294.333 343.535 267.303L256.686 235.767L205.305 282.945L153.924 330.123Z" fill="#8A1538"/>
</svg>
